# xmcd
# 
# Track frame offsets:
#     150
#     22344
#     36395
#     58040
#     77111
#     94868
#     112472
#     136810
#     159066
#     173794
#     192762
#     206773
# 
# Disc length: 2986
# 
# Revision: 0
# Processed by: cddbd v1.5.2PL0 Copyright (c) Steve Scherf et al.
# Submitted via: fre:ac v1.0.27
# 
DISCID=a80ba80c
DTITLE=Cyrus James - Molly And The Devil
DYEAR=2012
DGENRE=Country
TTITLE0=Headin' Out
TTITLE1=Lucky 59
TTITLE2=One Country Song
TTITLE3=Winter In Frisco
TTITLE4=Back Way Home
TTITLE5=I'm Drunk, I'm Sorry
TTITLE6=Molly And The Devil
TTITLE7=Paper Boats
TTITLE8=Lickity Split
TTITLE9=Pass Me By
TTITLE10=Reckless Cinderella
TTITLE11=Southbound
EXTD=
EXTT0=
EXTT1=
EXTT2=
EXTT3=
EXTT4=
EXTT5=
EXTT6=
EXTT7=
EXTT8=
EXTT9=
EXTT10=
EXTT11=
PLAYORDER=
